<svg width="24" height="24" viewBox="0 0 24 24" fill="none" xmlns="http://www.w3.org/2000/svg">
<path d="M11.775 4.5225C13.0455 4.62306 14.2694 5.04571 15.3312 5.75056C16.393 6.45541 17.2577 7.41922 17.8436 8.551C18.4295 9.68278 18.7174 10.9452 18.68 12.2191C18.6426 13.493 18.2812 14.7364 17.63 15.8319C16.9787 16.9273 16.059 17.8388 14.9577 18.4802C13.8563 19.1215 12.6098 19.4717 11.3356 19.4976C10.0614 19.5235 8.80159 19.2242 7.67514 18.6281C6.5487 18.032 5.59274 17.1586 4.8975 16.0905C7.002 15.5205 9.8715 14.1375 11.1375 10.764C11.9655 8.553 12.0135 6.3555 11.775 4.5225ZM20.184 12C20.1839 10.7916 19.9405 9.59565 19.4683 8.48337C18.9961 7.37108 18.3047 6.36529 17.4354 5.52595C16.5661 4.68661 15.5367 4.03092 14.4086 3.59798C13.2804 3.16504 12.0766 2.96371 10.869 3.006C10.7609 3.00955 10.6549 3.03643 10.5582 3.0848C10.4614 3.13317 10.3763 3.20189 10.3086 3.28623C10.241 3.37058 10.1923 3.46857 10.1661 3.57347C10.1398 3.67838 10.1365 3.78772 10.1565 3.894C10.5015 5.715 10.5765 7.986 9.732 10.236C8.532 13.437 5.529 14.496 3.6165 14.8425C3.50265 14.8631 3.3951 14.9097 3.30228 14.9788C3.20945 15.0479 3.13387 15.1375 3.08143 15.2406C3.02899 15.3437 3.00112 15.4576 3.00001 15.5733C2.99889 15.689 3.02456 15.8034 3.075 15.9075C3.95965 17.7448 5.44202 19.2273 7.27931 20.112C9.1166 20.9967 11.1999 21.2312 13.1879 20.7772C15.1759 20.3232 16.9508 19.2075 18.2218 17.6128C19.4929 16.0182 20.1847 14.0392 20.184 12Z" fill="white"/>
</svg>
